<svg xmlns="http://www.w3.org/2000/svg" viewBox="0 0 410 404" fill="none">
  <g clip-path="url(#clip0_17_39)">
    <path d="M399.641 59.524L215.57 388.896c-2.48 4.45-8.91 4.466-11.414.03L10.38 59.54c-2.746-4.86 1.371-10.795 6.863-9.73l186.992 36.34a6.536 6.536 0 002.398 0l186.18-36.322c5.48-1.07 9.61 4.85 6.865 9.71z" fill="url(#paint0_linear_17_39)"/>
    <path d="M292.965.525L156.001 27.45a3.268 3.268 0 00-2.634 3.014l-8.26 141.103a3.268 3.268 0 003.997 3.345l37.643-8.94c2.318-.55 4.413 1.508 3.92 3.845l-11.188 54.374c-.516 2.504 1.782 4.67 4.242 4.01l23.245-6.29c2.46-.66 4.758 1.506 4.241 4.01l-17.8 86.387c-.765 3.705 4.247 5.645 6.384 2.437l1.523-2.28 110.16-221.012c1.215-2.438-.88-5.234-3.59-4.68l-38.75 7.73c-2.479.49-4.435-1.92-3.64-4.31l25.22-75.886c.795-2.39-1.16-4.8-3.64-4.31z" fill="url(#paint1_linear_17_39)"/>
  </g>
  <defs>
    <linearGradient id="paint0_linear_17_39" x1="6.38" x2="235.238" y1="32.405" y2="344.705" gradientUnits="userSpaceOnUse">
      <stop stop-color="#41D1FF"/>
      <stop offset="1" stop-color="#BD34FE"/>
    </linearGradient>
    <linearGradient id="paint1_linear_17_39" x1="194.651" x2="236.076" y1="8.818" y2="292.989" gradientUnits="userSpaceOnUse">
      <stop stop-color="#FFEA83"/>
      <stop offset=".083" stop-color="#FFDD35"/>
      <stop offset="1" stop-color="#FFA800"/>
    </linearGradient>
    <clipPath id="clip0_17_39">
      <path fill="#fff" d="M0 0h410v404H0z"/>
    </clipPath>
  </defs>
</svg>
